# Blender v2.79 (sub 0) OBJ File: 'coin.blend'
# www.blender.org
mtllib coin.mtl
o coin
v 0.000000 -0.100000 -1.000000
v 0.000000 0.100000 -1.000000
v 0.587785 -0.100000 -0.809017
v 0.587785 0.100000 -0.809017
v 0.951057 -0.100000 -0.309017
v 0.951057 0.100000 -0.309017
v 0.951056 -0.100000 0.309017
v 0.951056 0.100000 0.309017
v 0.587785 -0.100000 0.809017
v 0.587785 0.100000 0.809017
v -0.000000 -0.100000 1.000000
v -0.000000 0.100000 1.000000
v -0.587785 -0.100000 0.809017
v -0.587785 0.100000 0.809017
v -0.951056 -0.100000 0.309017
v -0.951056 0.100000 0.309017
v -0.951056 -0.100000 -0.309017
v -0.951056 0.100000 -0.309017
v -0.587785 -0.100000 -0.809017
v -0.587785 0.100000 -0.809017
v 0.000000 -0.100000 -1.000000
v 0.000000 -0.100000 -1.000000
v 0.587785 -0.100000 -0.809017
v 0.587785 -0.100000 -0.809017
v 0.587785 0.100000 -0.809017
v 0.587785 0.100000 -0.809017
v 0.000000 0.100000 -1.000000
v 0.000000 0.100000 -1.000000
v 0.951057 -0.100000 -0.309017
v 0.951057 -0.100000 -0.309017
v 0.951057 0.100000 -0.309017
v 0.951057 0.100000 -0.309017
v 0.951056 -0.100000 0.309017
v 0.951056 -0.100000 0.309017
v 0.951056 0.100000 0.309017
v 0.951056 0.100000 0.309017
v 0.587785 -0.100000 0.809017
v 0.587785 -0.100000 0.809017
v 0.587785 0.100000 0.809017
v 0.587785 0.100000 0.809017
v -0.000000 -0.100000 1.000000
v -0.000000 -0.100000 1.000000
v -0.000000 0.100000 1.000000
v -0.000000 0.100000 1.000000
v -0.587785 -0.100000 0.809017
v -0.587785 -0.100000 0.809017
v -0.587785 0.100000 0.809017
v -0.587785 0.100000 0.809017
v -0.951056 -0.100000 0.309017
v -0.951056 -0.100000 0.309017
v -0.951056 0.100000 0.309017
v -0.951056 0.100000 0.309017
v -0.951056 -0.100000 -0.309017
v -0.951056 -0.100000 -0.309017
v -0.951056 0.100000 -0.309017
v -0.951056 0.100000 -0.309017
v -0.587785 -0.100000 -0.809017
v -0.587785 -0.100000 -0.809017
v -0.587785 0.100000 -0.809017
v -0.587785 0.100000 -0.809017
vt 0.969217 0.868745
vt 0.969217 0.967648
vt 0.874754 0.967648
vt 0.874754 0.868745
vt 0.874754 0.868745
vt 0.874754 0.967648
vt 0.780290 0.967648
vt 0.780290 0.868745
vt 0.780290 0.868745
vt 0.780290 0.967648
vt 0.685827 0.967648
vt 0.685827 0.868745
vt 0.685827 0.868745
vt 0.685827 0.967648
vt 0.591363 0.967648
vt 0.591363 0.868745
vt 0.591363 0.868745
vt 0.591363 0.967648
vt 0.496900 0.967648
vt 0.496900 0.868745
vt 0.496900 0.868745
vt 0.496900 0.967648
vt 0.402436 0.967648
vt 0.402436 0.868745
vt 0.402436 0.868745
vt 0.402436 0.967648
vt 0.307972 0.967648
vt 0.307972 0.868745
vt 0.307972 0.868745
vt 0.307972 0.967648
vt 0.213509 0.967648
vt 0.213509 0.868745
vt 0.813201 0.655377
vt 0.616059 0.798610
vt 0.372377 0.798610
vt 0.175234 0.655377
vt 0.099932 0.423622
vt 0.175234 0.191867
vt 0.372377 0.048634
vt 0.616059 0.048634
vt 0.813201 0.191867
vt 0.888503 0.423622
vt 0.213509 0.868745
vt 0.213509 0.967648
vt 0.119045 0.967648
vt 0.119045 0.868745
vt 0.119045 0.868745
vt 0.119045 0.967648
vt 0.024582 0.967648
vt 0.024582 0.868745
vt 0.616059 0.798610
vt 0.813201 0.655377
vt 0.888503 0.423622
vt 0.813201 0.191867
vt 0.616059 0.048634
vt 0.372377 0.048634
vt 0.175234 0.191867
vt 0.099932 0.423622
vt 0.175234 0.655377
vt 0.372377 0.798610
vn 0.3090 0.0000 -0.9511
vn 0.8090 0.0000 -0.5878
vn 1.0000 0.0000 0.0000
vn 0.8090 0.0000 0.5878
vn 0.3090 0.0000 0.9511
vn -0.3090 0.0000 0.9511
vn -0.8090 0.0000 0.5878
vn -1.0000 0.0000 0.0000
vn 0.0000 1.0000 -0.0000
vn -0.8090 0.0000 -0.5878
vn -0.3090 0.0000 -0.9511
vn 0.0000 -1.0000 -0.0000
usemtl coin
s off
f 21/1/1 27/2/1 25/3/1 23/4/1
f 24/5/2 26/6/2 31/7/2 29/8/2
f 30/9/3 32/10/3 35/11/3 33/12/3
f 34/13/4 36/14/4 39/15/4 37/16/4
f 38/17/5 40/18/5 43/19/5 41/20/5
f 42/21/6 44/22/6 47/23/6 45/24/6
f 46/25/7 48/26/7 51/27/7 49/28/7
f 50/29/8 52/30/8 55/31/8 53/32/8
f 4/33/9 28/34/9 59/35/9 56/36/9 16/37/9 14/38/9 12/39/9 10/40/9 8/41/9 6/42/9
f 54/43/10 18/44/10 60/45/10 57/46/10
f 58/47/11 20/48/11 2/49/11 22/50/11
f 1/51/12 3/52/12 5/53/12 7/54/12 9/55/12 11/56/12 13/57/12 15/58/12 17/59/12 19/60/12
