# Blender v2.79 (sub 0) OBJ File: 'shocker.blend'
# www.blender.org
mtllib shocker.mtl
o lightning
v -0.250000 0.000000 1.000000
v 0.250000 0.000000 1.000000
v -0.250000 0.000000 -1.000000
v 0.250000 0.000000 -1.000000
vt 0.000100 0.000100
vt 0.999900 0.000100
vt 0.999900 0.999900
vt 0.000100 0.999900
vn 0.0000 1.0000 0.0000
usemtl lightning
s off
f 1/1/1 2/2/1 4/3/1 3/4/1
o shocker
v 0.945481 0.000000 0.000821
v 0.745481 -0.000000 0.200821
v 0.545481 0.000000 0.000821
v 0.745481 0.000000 -0.199179
v 0.455704 0.866025 0.751396
v 0.262518 0.519615 0.699633
v -0.510222 0.866026 0.492577
v -0.465393 0.692820 0.711644
v -0.317037 0.519615 0.544341
v -0.361866 0.692820 0.325274
v -1.000000 0.000000 0.414932
v -0.800000 0.000000 0.614932
v -0.600000 0.000000 0.414932
v -0.800000 0.000000 0.214932
v -0.510222 -0.866026 0.337286
v -0.361866 -0.692820 0.504589
v -0.317037 -0.519615 0.285522
v -0.465393 -0.692820 0.118219
v 0.455704 -0.866025 0.078467
v 0.410875 -0.692820 0.297534
v 0.262518 -0.519615 0.130230
v 0.307347 -0.692820 -0.088837
v 0.945481 0.000000 0.829042
v 0.745481 -0.000000 1.029042
v 0.545481 0.000000 0.829042
v 0.745481 0.000000 0.629042
v 0.307347 0.692820 0.918700
v 0.410875 0.692820 0.532329
v 0.945481 0.000000 -0.829179
v 0.745481 -0.000000 -0.629179
v 0.545481 0.000000 -0.829179
v 0.745481 0.000000 -1.029179
v 0.455704 0.866025 -0.078604
v 0.262518 0.519615 -0.130367
v -0.510222 0.866026 -0.337422
v -0.465393 0.692820 -0.118355
v -0.317037 0.519615 -0.285659
v -0.361866 0.692820 -0.504726
v -1.000000 0.000000 -0.415068
v -0.800000 0.000000 -0.215068
v -0.600000 0.000000 -0.415068
v -0.800000 0.000000 -0.615068
v -0.510222 -0.866026 -0.492714
v -0.361866 -0.692820 -0.325411
v -0.317037 -0.519615 -0.544478
v -0.465393 -0.692820 -0.711781
v 0.455704 -0.866025 -0.751533
v 0.410875 -0.692820 -0.532466
v 0.262518 -0.519615 -0.699769
v 0.307347 -0.692820 -0.918837
v 0.307347 0.692820 0.088700
v 0.410875 0.692820 -0.297671
vt 0.378077 0.830980
vt 0.422078 0.934743
vt 0.386546 0.978192
vt 0.321587 0.832940
vt 0.146160 0.550904
vt 0.230157 0.378118
vt 0.267641 0.419938
vt 0.202683 0.550343
vt 0.482308 0.894677
vt 0.518228 0.746885
vt 0.569422 0.770632
vt 0.537543 0.886507
vt 0.957536 0.140214
vt 1.000000 0.298608
vt 0.951376 0.327137
vt 0.901759 0.137362
vt 0.954839 0.000000
vt 1.000000 0.030325
vt 0.380255 0.694111
vt 0.422078 0.726858
vt 0.577324 0.965500
vt 0.535349 1.000000
vt 0.267641 0.686416
vt 0.227358 0.720995
vt 0.745694 0.401664
vt 0.628516 0.307174
vt 0.683998 0.296306
vt 0.774723 0.379462
vt 0.850515 0.718594
vt 0.762572 0.675645
vt 0.809214 0.644055
vt 0.869475 0.672088
vt 0.451680 0.397423
vt 0.377888 0.466829
vt 0.321587 0.461452
vt 0.420562 0.378178
vt 0.160793 0.044390
vt 0.069355 0.081379
vt 0.019737 0.054570
vt 0.137201 0.000000
vt 0.645928 0.111920
vt 0.697539 0.132999
vt 0.742440 0.518135
vt 0.797137 0.532220
vt 0.387325 0.586545
vt 0.338088 0.612576
vt 0.052989 0.225771
vt 0.000000 0.245205
vt 0.742408 0.000000
vt 0.774723 0.043463
vt 0.838891 0.401664
vt 0.869475 0.444867
vt 0.451680 0.647696
vt 0.423894 0.694111
vt 0.160793 0.332102
vt 0.134756 0.378118
vt 0.117117 0.779858
vt 0.000000 0.685346
vt 0.055490 0.674521
vt 0.146160 0.757698
vt 0.977528 0.718651
vt 0.889522 0.675741
vt 0.936129 0.644098
vt 0.996434 0.672113
vt 0.742440 0.420859
vt 0.668706 0.490300
vt 0.612401 0.484978
vt 0.711309 0.401664
vt 0.482308 0.044423
vt 0.390826 0.081402
vt 0.341232 0.054547
vt 0.458756 0.000000
vt 0.924187 0.532238
vt 0.869475 0.518215
vt 0.321587 0.245183
vt 0.374592 0.225798
vt 0.628803 0.636185
vt 0.678017 0.610113
vt 0.068902 0.511143
vt 0.017306 0.490033
vt 0.113879 0.378118
vt 0.146160 0.421611
vt 0.965805 0.401664
vt 0.996434 0.444825
vt 0.742440 0.671245
vt 0.714701 0.717694
vt 0.482308 0.332194
vt 0.456232 0.378178
vt 0.599486 0.401664
vt 0.482308 0.307174
vt 0.537791 0.296306
vt 0.628515 0.379462
vt 0.882799 0.316930
vt 0.794855 0.273981
vt 0.841497 0.242391
vt 0.901759 0.270424
vt 0.612401 0.420910
vt 0.538609 0.490315
vt 0.482308 0.484938
vt 0.581283 0.401664
vt 0.321587 0.044390
vt 0.230149 0.081379
vt 0.180531 0.054570
vt 0.297994 0.000000
vt 0.499721 0.111920
vt 0.551332 0.132999
vt 0.774723 0.116471
vt 0.829420 0.130556
vt 0.548046 0.610031
vt 0.498809 0.636062
vt 0.213782 0.225771
vt 0.160793 0.245205
vt 0.596200 0.000000
vt 0.628515 0.043463
vt 0.871175 0.000000
vt 0.901759 0.043203
vt 0.612401 0.671182
vt 0.584615 0.717598
vt 0.321587 0.332102
vt 0.295549 0.378118
vt 0.644671 0.887637
vt 0.612401 0.741740
vt 0.662690 0.767300
vt 0.681374 0.888092
vt 0.318279 0.647743
vt 0.318279 0.744644
vt 0.268902 0.717402
vt 0.267641 0.651617
vt 0.273291 0.647743
vt 0.267641 0.547297
vt 0.308289 0.508465
vt 0.308289 0.636823
vt 0.267641 0.508465
vt 0.272666 0.411000
vt 0.318384 0.378118
vt 0.318384 0.506324
vt 0.681374 0.743255
vt 0.631084 0.717694
vt 0.526130 0.717598
vt 0.577324 0.741344
vn -0.4946 -0.8661 -0.0727
vn -0.6448 -0.7641 -0.0185
vn 0.0945 -0.5062 0.8572
vn -0.0988 0.2204 0.9704
vn 0.4948 0.8660 0.0722
vn 0.9126 -0.3812 0.1479
vn 0.2726 -0.5523 -0.7878
vn 0.3199 0.1679 -0.9324
vn -0.4948 0.8660 -0.0722
vn -0.3199 0.1679 0.9324
vn 0.4946 -0.8661 0.0727
vn 0.0988 0.2204 -0.9704
vn -1.0000 0.0000 0.0000
vn -0.2258 -0.0767 0.9711
vn 1.0000 0.0000 0.0000
vn -0.2258 0.0767 -0.9711
vn -0.4948 -0.8660 0.0722
vn 0.0988 -0.2204 0.9704
vn 0.4946 0.8661 -0.0727
vn -0.3199 -0.1679 -0.9324
vn 0.4948 -0.8660 -0.0722
vn 0.3199 -0.1679 0.9324
vn -0.4946 0.8661 0.0727
vn -0.0988 -0.2204 -0.9704
vn 1.0000 0.0002 0.0005
vn 0.2255 0.0776 0.9711
vn -1.0000 0.0000 0.0005
vn 0.2263 -0.0777 -0.9709
vn -0.4943 -0.8662 -0.0732
vn -0.0994 0.2212 0.9701
vn 0.4949 0.8660 0.0717
vn 0.3204 0.1670 -0.9324
vn 0.9126 0.3812 -0.1479
vn 0.2726 0.5523 0.7878
vn -0.6448 0.7641 0.0185
vn 0.0945 0.5062 -0.8572
usemtl shocker
s 1
f 10/5/2 29/6/3 28/7/4 31/8/5
f 9/9/6 27/10/7 30/11/8 32/12/9
f 32/13/9 30/14/8 29/15/3 10/16/2
f 31/17/5 28/18/4 27/19/7 9/20/6
f 9/20/6 11/21/10 12/22/11 31/17/5
f 31/8/5 12/23/11 13/24/12 10/5/2
f 10/16/2 13/25/12 14/26/13 32/13/9
f 32/12/9 14/27/13 11/28/10 9/9/6
f 11/29/10 15/30/14 16/31/15 12/32/11
f 12/33/11 16/34/15 17/35/16 13/36/12
f 13/37/12 17/38/16 18/39/17 14/40/13
f 14/41/13 18/42/17 15/43/14 11/44/10
f 15/30/14 19/45/18 20/46/19 16/31/15
f 16/34/15 20/47/19 21/48/20 17/35/16
f 17/38/16 21/49/20 22/50/21 18/39/17
f 18/42/17 22/51/21 19/52/18 15/43/14
f 19/45/18 23/53/22 24/54/23 20/46/19
f 20/47/19 24/55/23 25/56/24 21/48/20
f 21/49/20 25/57/24 26/58/25 22/50/21
f 22/51/21 26/59/25 23/60/22 19/52/18
f 23/61/22 5/62/26 6/63/27 24/64/23
f 24/65/23 6/66/27 7/67/28 25/68/24
f 25/69/24 7/70/28 8/71/29 26/72/25
f 26/73/25 8/74/29 5/75/26 23/76/22
f 38/77/30 7/67/28 6/66/27 55/78/31
f 37/79/32 5/75/26 8/74/29 56/80/33
f 56/81/33 8/71/29 7/70/28 38/82/30
f 55/83/31 6/63/27 5/62/26 37/84/32
f 37/84/32 39/85/10 40/86/11 55/83/31
f 55/78/31 40/87/11 41/88/12 38/77/30
f 38/82/30 41/89/12 42/90/13 56/81/33
f 56/80/33 42/91/13 39/92/10 37/79/32
f 39/93/10 43/94/14 44/95/15 40/96/11
f 40/97/11 44/98/15 45/99/16 41/100/12
f 41/101/12 45/102/16 46/103/17 42/104/13
f 42/105/13 46/106/17 43/107/14 39/108/10
f 43/94/14 47/109/18 48/110/19 44/95/15
f 44/98/15 48/111/19 49/112/20 45/99/16
f 45/102/16 49/113/20 50/114/21 46/103/17
f 46/106/17 50/115/21 47/116/18 43/107/14
f 47/109/18 51/117/22 52/118/23 48/110/19
f 48/111/19 52/119/23 53/120/24 49/112/20
f 49/113/20 53/121/24 54/122/25 50/114/21
f 50/115/21 54/123/25 51/124/22 47/116/18
f 51/125/22 33/126/34 34/127/35 52/128/23
f 52/129/23 34/130/35 35/131/36 53/132/24
f 53/133/24 35/134/36 36/135/37 54/136/25
f 54/137/25 36/138/37 33/139/34 51/140/22
f 35/141/36 34/127/35 33/126/34 36/142/37
f 29/15/3 30/14/8 27/143/7 28/144/4
