# Blender v2.79 (sub 0) OBJ File: 'shocker.blend'
# www.blender.org
mtllib shocker.mtl
o lightning
v -0.250000 0.000000 1.000000
v 0.250000 0.000000 1.000000
v -0.250000 0.000000 -1.000000
v 0.250000 0.000000 -1.000000
vt 0.000100 0.000100
vt 0.999900 0.000100
vt 0.999900 0.999900
vt 0.000100 0.999900
vn 0.0000 1.0000 0.0000
usemtl lightning
s off
f 1/1/1 2/2/1 4/3/1 3/4/1
o shocker
v 0.945481 0.000000 0.000821
v 0.745481 -0.000000 0.200821
v 0.545481 0.000000 0.000821
v 0.745481 0.000000 -0.199179
v 0.455704 0.866025 0.751396
v 0.262518 0.519615 0.699633
v -0.510222 0.866026 0.492577
v -0.465393 0.692820 0.711644
v -0.317037 0.519615 0.544341
v -0.361866 0.692820 0.325274
v -1.000000 0.000000 0.414932
v -0.800000 0.000000 0.614932
v -0.600000 0.000000 0.414932
v -0.800000 0.000000 0.214932
v -0.510222 -0.866026 0.337286
v -0.361866 -0.692820 0.504589
v -0.317037 -0.519615 0.285522
v -0.465393 -0.692820 0.118219
v 0.455704 -0.866025 0.078467
v 0.410875 -0.692820 0.297534
v 0.262518 -0.519615 0.130230
v 0.307347 -0.692820 -0.088837
v 0.945481 0.000000 0.829042
v 0.745481 -0.000000 1.029042
v 0.545481 0.000000 0.829042
v 0.745481 0.000000 0.629042
v 0.307347 0.692820 0.918700
v 0.410875 0.692820 0.532329
v 0.945481 0.000000 -0.829179
v 0.745481 -0.000000 -0.629179
v 0.545481 0.000000 -0.829179
v 0.745481 0.000000 -1.029179
v 0.455704 0.866025 -0.078604
v 0.262518 0.519615 -0.130367
v -0.510222 0.866026 -0.337422
v -0.465393 0.692820 -0.118355
v -0.317037 0.519615 -0.285659
v -0.361866 0.692820 -0.504726
v -1.000000 0.000000 -0.415068
v -0.800000 0.000000 -0.215068
v -0.600000 0.000000 -0.415068
v -0.800000 0.000000 -0.615068
v -0.510222 -0.866026 -0.492714
v -0.361866 -0.692820 -0.325411
v -0.317037 -0.519615 -0.544478
v -0.465393 -0.692820 -0.711781
v 0.455704 -0.866025 -0.751533
v 0.410875 -0.692820 -0.532466
v 0.262518 -0.519615 -0.699769
v 0.307347 -0.692820 -0.918837
v 0.307347 0.692820 0.088700
v 0.410875 0.692820 -0.297671
v 0.745481 -0.000000 0.200821
v 0.410875 -0.692820 0.297534
v -0.465393 0.692820 0.711644
v -0.800000 0.000000 0.614932
v -0.361866 -0.692820 0.504589
v 0.262518 0.519615 0.699633
v -0.317037 0.519615 0.544341
v 0.545481 0.000000 0.000821
v 0.262518 -0.519615 0.130230
v 0.945481 0.000000 0.000821
v 0.455704 -0.866025 0.078467
v -0.600000 0.000000 0.414932
v -0.317037 -0.519615 0.285522
v -0.510222 0.866026 0.492577
v -1.000000 0.000000 0.414932
v -0.510222 -0.866026 0.337286
v 0.745481 0.000000 -0.199179
v 0.307347 -0.692820 -0.088837
v -0.800000 0.000000 0.214932
v -0.465393 -0.692820 0.118219
v -0.361866 0.692820 0.325274
v 0.455704 0.866025 0.751396
v 0.545481 0.000000 0.829042
v 0.545481 0.000000 0.829042
v 0.745481 0.000000 0.629042
v 0.745481 0.000000 0.629042
v 0.945481 0.000000 0.829042
v 0.945481 0.000000 0.829042
v 0.745481 -0.000000 1.029042
v 0.745481 -0.000000 1.029042
v 0.410875 0.692820 0.532329
v 0.307347 0.692820 0.918700
v 0.745481 -0.000000 -0.629179
v 0.745481 -0.000000 -0.629179
v 0.410875 -0.692820 -0.532466
v -0.465393 0.692820 -0.118355
v -0.800000 0.000000 -0.215068
v 0.545481 0.000000 -0.829179
v 0.545481 0.000000 -0.829179
v 0.745481 0.000000 -1.029179
v 0.745481 0.000000 -1.029179
v -0.361866 -0.692820 -0.325411
v 0.262518 0.519615 -0.130367
v -0.317037 0.519615 -0.285659
v 0.262518 -0.519615 -0.699769
v 0.945481 0.000000 -0.829179
v 0.945481 0.000000 -0.829179
v 0.455704 -0.866025 -0.751533
v -0.600000 0.000000 -0.415068
v -0.317037 -0.519615 -0.544478
v -0.510222 0.866026 -0.337422
v -1.000000 0.000000 -0.415068
v -0.510222 -0.866026 -0.492714
v 0.307347 -0.692820 -0.918837
v -0.800000 0.000000 -0.615068
v -0.465393 -0.692820 -0.711781
v -0.361866 0.692820 -0.504726
v 0.455704 0.866025 -0.078604
v 0.410875 0.692820 -0.297671
v 0.307347 0.692820 0.088700
vt 0.378077 0.830980
vt 0.422078 0.934743
vt 0.386546 0.978192
vt 0.321587 0.832940
vt 0.146160 0.550904
vt 0.230157 0.378118
vt 0.267641 0.419938
vt 0.202683 0.550343
vt 0.482308 0.894677
vt 0.518228 0.746885
vt 0.569422 0.770632
vt 0.537543 0.886507
vt 0.957536 0.140214
vt 1.000000 0.298608
vt 0.951376 0.327137
vt 0.901759 0.137362
vt 0.954839 0.000000
vt 1.000000 0.030325
vt 0.380255 0.694111
vt 0.422078 0.726858
vt 0.577324 0.965500
vt 0.535349 1.000000
vt 0.267641 0.686416
vt 0.227358 0.720995
vt 0.745694 0.401664
vt 0.628516 0.307174
vt 0.683998 0.296306
vt 0.774723 0.379462
vt 0.850515 0.718594
vt 0.762572 0.675645
vt 0.809214 0.644055
vt 0.869475 0.672088
vt 0.451680 0.397423
vt 0.377888 0.466829
vt 0.321587 0.461452
vt 0.420562 0.378178
vt 0.160793 0.044390
vt 0.069355 0.081379
vt 0.019737 0.054570
vt 0.137201 0.000000
vt 0.645928 0.111920
vt 0.697539 0.132999
vt 0.742440 0.518135
vt 0.797137 0.532220
vt 0.387325 0.586545
vt 0.338088 0.612576
vt 0.052989 0.225771
vt 0.000000 0.245205
vt 0.742408 0.000000
vt 0.774723 0.043463
vt 0.838891 0.401664
vt 0.869475 0.444867
vt 0.451680 0.647696
vt 0.423894 0.694111
vt 0.160793 0.332102
vt 0.134756 0.378118
vt 0.117117 0.779858
vt 0.000000 0.685346
vt 0.055490 0.674521
vt 0.146160 0.757698
vt 0.977528 0.718651
vt 0.889522 0.675741
vt 0.936129 0.644098
vt 0.996434 0.672113
vt 0.742440 0.420859
vt 0.668706 0.490300
vt 0.612401 0.484978
vt 0.711309 0.401664
vt 0.482308 0.044423
vt 0.390826 0.081402
vt 0.341232 0.054547
vt 0.458756 0.000000
vt 0.924187 0.532238
vt 0.869475 0.518215
vt 0.321587 0.245183
vt 0.374592 0.225798
vt 0.628803 0.636185
vt 0.678017 0.610113
vt 0.068902 0.511143
vt 0.017306 0.490033
vt 0.113879 0.378118
vt 0.146160 0.421611
vt 0.965805 0.401664
vt 0.996434 0.444825
vt 0.742440 0.671245
vt 0.714701 0.717694
vt 0.482308 0.332194
vt 0.456232 0.378178
vt 0.599486 0.401664
vt 0.482308 0.307174
vt 0.537791 0.296306
vt 0.628515 0.379462
vt 0.882799 0.316930
vt 0.794855 0.273981
vt 0.841497 0.242391
vt 0.901759 0.270424
vt 0.612401 0.420910
vt 0.538609 0.490315
vt 0.482308 0.484938
vt 0.581283 0.401664
vt 0.321587 0.044390
vt 0.230149 0.081379
vt 0.180531 0.054570
vt 0.297994 0.000000
vt 0.499721 0.111920
vt 0.551332 0.132999
vt 0.774723 0.116471
vt 0.829420 0.130556
vt 0.548046 0.610031
vt 0.498809 0.636062
vt 0.213782 0.225771
vt 0.160793 0.245205
vt 0.596200 0.000000
vt 0.628515 0.043463
vt 0.871175 0.000000
vt 0.901759 0.043203
vt 0.612401 0.671182
vt 0.584615 0.717598
vt 0.321587 0.332102
vt 0.295549 0.378118
vt 0.644671 0.887637
vt 0.612401 0.741740
vt 0.662690 0.767300
vt 0.681374 0.888092
vt 0.318279 0.647743
vt 0.318279 0.744644
vt 0.268902 0.717402
vt 0.267641 0.651617
vt 0.273291 0.647743
vt 0.267641 0.547297
vt 0.308289 0.508465
vt 0.308289 0.636823
vt 0.267641 0.508465
vt 0.272666 0.411000
vt 0.318384 0.378118
vt 0.318384 0.506324
vt 0.681374 0.743255
vt 0.662690 0.767300
vt 0.612401 0.741740
vt 0.631084 0.717694
vt 0.569422 0.770632
vt 0.518228 0.746885
vt 0.526130 0.717598
vt 0.577324 0.741344
vn -0.4861 -0.5871 0.6473
vn -0.7485 -0.3316 0.5743
vn -0.4957 -0.5801 0.6463
vn 0.4863 0.5869 -0.6473
vn 0.7485 0.3316 -0.5743
vn 0.4944 0.5810 -0.6465
vn -0.2023 -0.6435 -0.7382
vn -0.5535 -0.4164 -0.7213
vn -0.2155 -0.6374 -0.7398
vn 0.2053 0.6421 0.7385
vn 0.5535 0.4164 0.7213
vn 0.2154 0.6374 0.7398
vn -0.4863 0.5869 0.6473
vn -0.4944 0.5810 0.6465
vn 0.2023 -0.6435 0.7382
vn 0.2155 -0.6374 0.7398
vn 0.4861 -0.5871 -0.6473
vn 0.4957 -0.5801 -0.6463
vn -0.2053 0.6421 -0.7385
vn -0.2154 0.6374 -0.7398
vn -0.7028 -0.0658 0.7083
vn -0.7113 -0.0334 0.7020
vn 0.6955 -0.0910 0.7127
vn 0.7165 -0.0119 0.6974
vn 0.7165 0.0119 -0.6974
vn 0.6955 0.0910 -0.7127
vn -0.7113 0.0334 -0.7020
vn -0.7028 0.0658 -0.7083
vn -0.2154 -0.6374 0.7398
vn -0.2053 -0.6421 0.7385
vn 0.4957 0.5801 0.6463
vn 0.4861 0.5871 0.6473
vn 0.2155 0.6374 -0.7398
vn 0.2023 0.6435 -0.7382
vn -0.4944 -0.5810 -0.6465
vn -0.4863 -0.5869 -0.6473
vn 0.4863 -0.5869 0.6473
vn 0.4944 -0.5810 0.6465
vn -0.2023 0.6435 0.7382
vn -0.2155 0.6374 0.7398
vn -0.4861 0.5871 -0.6473
vn -0.4957 0.5801 -0.6463
vn 0.2053 -0.6421 -0.7385
vn 0.2154 -0.6374 -0.7398
vn 0.7025 0.0667 0.7085
vn 0.7112 0.0338 0.7021
vn -0.6956 0.0919 0.7125
vn -0.7168 0.0124 0.6971
vn -0.7164 -0.0124 -0.6976
vn -0.6952 -0.0923 -0.7129
vn 0.7115 -0.0338 -0.7018
vn 0.7029 -0.0665 -0.7082
vn -0.4863 -0.5868 0.6474
vn -0.4964 -0.5794 0.6464
vn 0.4869 0.5864 -0.6473
vn 0.4946 0.5807 -0.6466
vn -0.2015 -0.6442 -0.7378
vn -0.2150 -0.6380 -0.7394
vn 0.2050 0.6425 0.7383
vn 0.2148 0.6380 0.7395
vn 0.7485 -0.3316 0.5743
vn -0.5535 0.4164 0.7213
vn -0.7485 0.3316 -0.5743
vn 0.5535 -0.4164 -0.7213
vn 0.0000 1.0000 0.0000
vn 0.0000 -1.0000 0.0000
usemtl shocker
s 1
f 62/5/2 80/6/3 85/7/3 88/8/4
f 9/9/5 83/10/6 82/11/6 87/12/7
f 32/13/8 81/14/9 79/15/9 10/16/10
f 31/17/11 86/18/12 84/19/12 78/20/13
f 78/20/13 70/21/14 59/22/15 31/17/11
f 88/8/4 12/23/16 13/24/17 62/5/2
f 10/16/10 63/25/18 77/26/19 32/13/8
f 87/12/7 14/27/20 11/28/21 9/9/5
f 70/29/14 15/30/22 60/31/23 59/32/15
f 12/33/16 16/34/24 68/35/25 13/36/17
f 63/37/18 17/38/26 18/39/27 77/40/19
f 14/41/20 75/42/28 71/43/29 11/44/21
f 15/30/22 72/45/30 61/46/31 60/31/23
f 16/34/24 20/47/32 21/48/33 68/35/25
f 17/38/26 69/49/34 76/50/35 18/39/27
f 75/42/28 22/51/36 19/52/37 71/43/29
f 72/45/30 23/53/38 58/54/39 61/46/31
f 20/47/32 24/55/40 25/56/41 21/48/33
f 69/49/34 65/57/42 74/58/43 76/50/35
f 22/51/36 26/59/44 67/60/45 19/52/37
f 23/61/38 66/62/46 57/63/47 58/64/39
f 24/65/40 6/66/48 7/67/49 25/68/41
f 65/69/42 64/70/50 73/71/51 74/72/43
f 26/73/44 8/74/52 5/75/53 67/76/45
f 99/77/54 7/67/49 6/66/48 116/78/55
f 37/79/56 5/75/53 8/74/52 115/80/57
f 56/81/58 73/71/51 64/70/50 38/82/59
f 55/83/60 57/63/47 66/62/46 114/84/61
f 114/84/61 107/85/14 92/86/15 55/83/60
f 116/78/55 40/87/16 41/88/17 99/77/54
f 38/82/59 100/89/18 113/90/19 56/81/58
f 115/80/57 42/91/20 39/92/21 37/79/56
f 107/93/14 43/94/22 93/95/23 92/96/15
f 40/97/16 44/98/24 105/99/25 41/100/17
f 100/101/18 45/102/26 46/103/27 113/104/19
f 42/105/20 111/106/28 108/107/29 39/108/21
f 43/94/22 109/109/30 98/110/31 93/95/23
f 44/98/24 48/111/32 49/112/33 105/99/25
f 45/102/26 106/113/34 112/114/35 46/103/27
f 111/106/28 50/115/36 47/116/37 108/107/29
f 109/109/30 51/117/38 91/118/39 98/110/31
f 48/111/32 52/119/40 53/120/41 49/112/33
f 106/113/34 101/121/42 110/122/43 112/114/35
f 50/115/36 54/123/44 104/124/45 47/116/37
f 51/125/38 102/126/62 89/127/62 91/128/39
f 52/129/40 90/130/63 95/131/63 53/132/41
f 101/133/42 94/134/64 96/135/64 110/136/43
f 54/137/44 97/138/65 103/139/65 104/140/45
f 35/141/66 34/142/66 33/143/66 36/144/66
f 29/145/67 30/146/67 27/147/67 28/148/67
