# Blender v2.79 (sub 0) OBJ File: 'monster2.blend'
# www.blender.org
o rocket
v 0.000000 0.000000 1.298228
v 0.000000 -0.000000 -1.031925
v 0.000000 -0.578428 0.540928
v 0.409011 -0.987439 -0.216371
v 0.000000 -0.809800 -0.624148
v 0.163604 -0.394976 -1.031925
v 0.409011 -0.409011 0.540928
v 0.987439 -0.409011 -0.216371
v 0.572615 -0.572615 -0.624148
v 0.394976 -0.163604 -1.031925
v 0.578428 0.000000 0.540928
v 0.987439 0.409011 -0.216371
v 0.809800 -0.000000 -0.624148
v 0.394976 0.163604 -1.031925
v 0.409011 0.409011 0.540928
v 0.409011 0.987439 -0.216371
v 0.572615 0.572615 -0.624148
v 0.163604 0.394976 -1.031925
v 0.000000 0.578429 0.540928
v -0.409011 0.987439 -0.216371
v 0.000000 0.809800 -0.624148
v -0.163604 0.394976 -1.031925
v 0.803620 -0.832173 1.711122
v -0.987439 0.409011 -0.216371
v -0.572615 0.572615 -0.624148
v -0.394976 0.163604 -1.031925
v -0.578428 0.000000 0.540928
v -0.987439 -0.409011 -0.216371
v -0.809800 -0.000000 -0.624148
v -0.394976 -0.163604 -1.031925
v -0.409011 -0.409011 0.540928
v -0.409011 -0.987439 -0.216371
v -0.572615 -0.572615 -0.624148
v -0.163604 -0.394976 -1.031925
v 0.832173 0.803620 1.711122
v -0.409011 0.409011 0.540928
v -0.803620 0.832173 1.711122
v -0.832173 -0.803620 1.711122
v -0.832173 0.803620 1.711122
v 0.803620 0.832173 1.711122
v 0.832173 -0.803620 1.711122
v -0.803620 -0.832173 1.711122
v -0.409011 -0.409011 0.540928
v -0.409011 -0.409011 0.540928
v -0.409011 -0.409011 0.540928
v -0.409011 -0.409011 0.540928
v -0.409011 -0.409011 0.540928
v -0.803620 -0.832173 1.711122
v -0.803620 -0.832173 1.711122
v 0.409011 0.987439 -0.216371
v 0.409011 0.987439 -0.216371
v 0.409011 0.987439 -0.216371
v 0.409011 0.987439 -0.216371
v 0.409011 0.987439 -0.216371
v 0.000000 0.578429 0.540928
v 0.000000 0.578429 0.540928
v -0.987439 0.409011 -0.216371
v -0.987439 0.409011 -0.216371
v -0.987439 0.409011 -0.216371
v -0.987439 0.409011 -0.216371
v -0.987439 0.409011 -0.216371
v -0.578428 0.000000 0.540928
v -0.578428 0.000000 0.540928
v 0.987439 0.409011 -0.216371
v 0.987439 0.409011 -0.216371
v 0.987439 0.409011 -0.216371
v 0.987439 0.409011 -0.216371
v 0.987439 0.409011 -0.216371
v 0.409011 0.409011 0.540928
v 0.409011 0.409011 0.540928
v 0.409011 0.409011 0.540928
v 0.409011 0.409011 0.540928
v 0.409011 0.409011 0.540928
v 0.163604 -0.394976 -1.031925
v 0.163604 -0.394976 -1.031925
v 0.163604 -0.394976 -1.031925
v 0.572615 -0.572615 -0.624148
v 0.572615 -0.572615 -0.624148
v 0.572615 -0.572615 -0.624148
v 0.000000 -0.578428 0.540928
v 0.000000 -0.578428 0.540928
v 0.409011 -0.987439 -0.216371
v 0.409011 -0.987439 -0.216371
v 0.409011 -0.987439 -0.216371
v 0.409011 -0.987439 -0.216371
v 0.409011 -0.987439 -0.216371
v 0.000000 0.000000 1.298228
v 0.000000 0.000000 1.298228
v 0.000000 0.000000 1.298228
v 0.000000 0.000000 1.298228
v 0.000000 0.000000 1.298228
v 0.000000 0.000000 1.298228
v 0.000000 0.000000 1.298228
v 0.000000 0.000000 1.298228
v 0.000000 0.000000 1.298228
v 0.000000 0.000000 1.298228
v 0.000000 0.000000 1.298228
v 0.000000 0.000000 1.298228
v 0.000000 0.000000 1.298228
v 0.000000 0.000000 1.298228
v 0.000000 0.000000 1.298228
v 0.000000 0.000000 1.298228
v 0.000000 0.000000 1.298228
v 0.000000 0.000000 1.298228
v 0.000000 0.000000 1.298228
v 0.409011 -0.409011 0.540928
v 0.409011 -0.409011 0.540928
v 0.409011 -0.409011 0.540928
v 0.409011 -0.409011 0.540928
v 0.409011 -0.409011 0.540928
v -0.394976 -0.163604 -1.031925
v -0.394976 -0.163604 -1.031925
v -0.394976 -0.163604 -1.031925
v -0.163604 -0.394976 -1.031925
v -0.163604 -0.394976 -1.031925
v -0.163604 -0.394976 -1.031925
v -0.409011 0.987439 -0.216371
v -0.409011 0.987439 -0.216371
v -0.409011 0.987439 -0.216371
v -0.409011 0.987439 -0.216371
v -0.409011 0.987439 -0.216371
v -0.572615 0.572615 -0.624148
v -0.572615 0.572615 -0.624148
v -0.572615 0.572615 -0.624148
v -0.572615 -0.572615 -0.624148
v -0.572615 -0.572615 -0.624148
v -0.572615 -0.572615 -0.624148
v 0.809800 -0.000000 -0.624148
v 0.809800 -0.000000 -0.624148
v 0.809800 -0.000000 -0.624148
v 0.394976 0.163604 -1.031925
v 0.394976 0.163604 -1.031925
v 0.394976 0.163604 -1.031925
v 0.000000 -0.809800 -0.624148
v 0.000000 -0.809800 -0.624148
v 0.000000 -0.809800 -0.624148
v -0.409011 -0.987439 -0.216371
v -0.409011 -0.987439 -0.216371
v -0.409011 -0.987439 -0.216371
v -0.409011 -0.987439 -0.216371
v -0.409011 -0.987439 -0.216371
v 0.163604 0.394976 -1.031925
v 0.163604 0.394976 -1.031925
v 0.163604 0.394976 -1.031925
v 0.000000 0.809800 -0.624148
v 0.000000 0.809800 -0.624148
v 0.000000 0.809800 -0.624148
v -0.987439 -0.409011 -0.216371
v -0.987439 -0.409011 -0.216371
v -0.987439 -0.409011 -0.216371
v -0.987439 -0.409011 -0.216371
v -0.987439 -0.409011 -0.216371
v 0.394976 -0.163604 -1.031925
v 0.394976 -0.163604 -1.031925
v 0.394976 -0.163604 -1.031925
v -0.394976 0.163604 -1.031925
v -0.394976 0.163604 -1.031925
v -0.394976 0.163604 -1.031925
v -0.809800 -0.000000 -0.624148
v -0.809800 -0.000000 -0.624148
v -0.809800 -0.000000 -0.624148
v 0.572615 0.572615 -0.624148
v 0.572615 0.572615 -0.624148
v 0.572615 0.572615 -0.624148
v 0.578428 0.000000 0.540928
v 0.578428 0.000000 0.540928
v -0.163604 0.394976 -1.031925
v -0.163604 0.394976 -1.031925
v -0.163604 0.394976 -1.031925
v -0.409011 0.409011 0.540928
v -0.409011 0.409011 0.540928
v -0.409011 0.409011 0.540928
v -0.409011 0.409011 0.540928
v -0.409011 0.409011 0.540928
v -0.803620 0.832173 1.711122
v -0.803620 0.832173 1.711122
v 0.987439 -0.409011 -0.216371
v 0.987439 -0.409011 -0.216371
v 0.987439 -0.409011 -0.216371
v 0.987439 -0.409011 -0.216371
v 0.987439 -0.409011 -0.216371
v -0.832173 0.803620 1.711122
v -0.832173 0.803620 1.711122
v 0.832173 0.803620 1.711122
v 0.832173 0.803620 1.711122
v 0.832173 -0.803620 1.711122
v 0.832173 -0.803620 1.711122
v 0.803620 -0.832173 1.711122
v 0.803620 -0.832173 1.711122
v 0.803620 0.832173 1.711122
v 0.803620 0.832173 1.711122
v -0.832173 -0.803620 1.711122
v -0.832173 -0.803620 1.711122
vn 0.3127 -0.7549 0.5766
vn 0.6222 -0.6222 0.4752
vn 0.6483 -0.6483 -0.3994
vn 0.3008 -0.7263 -0.6181
vn 0.4957 -0.4957 -0.7131
vn 0.7549 -0.3127 0.5766
vn 0.8799 0.0000 0.4752
vn 0.9168 -0.0000 -0.3994
vn 0.7263 -0.3008 -0.6181
vn 0.7010 0.0000 -0.7131
vn 0.7549 0.3127 0.5766
vn 0.6222 0.6222 0.4752
vn 0.6483 0.6483 -0.3994
vn 0.7263 0.3008 -0.6181
vn 0.4957 0.4957 -0.7131
vn 0.3127 0.7549 0.5766
vn 0.0000 0.8799 0.4752
vn 0.0000 0.9168 -0.3994
vn 0.3008 0.7263 -0.6181
vn 0.0000 0.7010 -0.7131
vn -0.3127 0.7549 0.5766
vn -0.6222 0.6222 0.4752
vn -0.6483 0.6483 -0.3994
vn -0.3008 0.7263 -0.6181
vn -0.4957 0.4957 -0.7131
vn -0.7549 0.3127 0.5766
vn -0.8799 0.0000 0.4752
vn -0.9168 -0.0000 -0.3994
vn -0.7263 0.3008 -0.6181
vn -0.7010 0.0000 -0.7131
vn -0.7549 -0.3127 0.5766
vn -0.6222 -0.6222 0.4752
vn -0.6483 -0.6483 -0.3994
vn -0.7263 -0.3008 -0.6181
vn -0.4957 -0.4957 -0.7131
vn -0.3127 -0.7549 0.5766
vn 0.0000 -0.8799 0.4752
vn 0.0000 -0.9168 -0.3994
vn -0.3008 -0.7263 -0.6181
vn 0.0000 -0.7010 -0.7131
vn 0.0000 0.0000 -1.0000
vn -0.2377 0.2377 0.9418
vn 0.2377 -0.2377 0.9418
vn 0.6339 -0.6339 -0.4430
vn -0.2377 -0.2377 0.9418
vn 0.6339 0.6339 -0.4430
vn -0.6339 -0.6339 -0.4430
vn 0.2377 0.2377 0.9418
vn -0.6339 0.6339 -0.4430
vn 0.7167 -0.6973 -0.0105
vn -0.6973 0.7167 -0.0105
vn -0.7167 -0.6973 -0.0105
vn 0.6973 0.7167 -0.0105
vn 0.6973 -0.7167 -0.0105
vn 0.7167 0.6973 -0.0105
vn -0.7167 0.6973 -0.0105
vn -0.6973 -0.7167 -0.0105
usemtl None
s off
f 107//1 91//1 80//1 82//1
f 108//2 85//2 177//2
f 179//3 84//3 79//3
f 77//4 83//4 135//4 74//4
f 78//5 75//5 153//5
f 165//6 90//6 7//6 178//6
f 166//7 181//7 67//7
f 68//8 180//8 130//8
f 129//9 8//9 9//9 155//9
f 128//10 10//10 131//10
f 69//11 104//11 11//11 64//11
f 70//12 66//12 52//12
f 54//13 65//13 163//13
f 164//14 12//14 13//14 14//14
f 162//15 133//15 143//15
f 55//16 88//16 73//16 50//16
f 56//17 53//17 119//17
f 120//18 51//18 146//18
f 145//19 16//19 17//19 142//19
f 147//20 144//20 168//20
f 173//21 102//21 19//21 121//21
f 171//22 118//22 59//22
f 58//23 117//23 122//23
f 124//24 20//24 21//24 169//24
f 123//25 22//25 157//25
f 62//26 93//26 174//26 57//26
f 63//27 61//27 150//27
f 151//28 60//28 160//28
f 159//29 24//29 25//29 156//29
f 161//30 158//30 113//30
f 46//31 100//31 27//31 152//31
f 45//32 149//32 138//32
f 139//33 148//33 126//33
f 127//34 28//34 29//34 30//34
f 125//35 112//35 114//35
f 81//36 101//36 31//36 140//36
f 3//37 141//37 86//37
f 4//38 137//38 134//38
f 136//39 32//39 33//39 115//39
f 5//40 116//40 76//40
f 6//41 34//41 2//41
f 2//41 154//41 6//41
f 2//41 132//41 154//41
f 2//41 18//41 132//41
f 2//41 167//41 18//41
f 2//41 26//41 167//41
f 2//41 111//41 26//41
f 2//41 34//41 111//41
f 96//42 188//42 186//42
f 176//43 182//43 95//43
f 189//44 109//44 187//44
f 94//45 184//45 190//45
f 185//46 72//46 191//46
f 192//47 43//47 48//47
f 98//48 193//48 49//48
f 175//49 170//49 183//49
f 42//50 44//50 89//50
f 47//51 38//51 99//51
f 106//52 23//52 87//52
f 41//53 110//53 105//53
f 71//54 35//54 92//54
f 37//55 97//55 172//55
f 40//56 15//56 103//56
f 36//57 1//57 39//57
