# Blender v2.76 (sub 0) OBJ File: 'environment.blend'
# www.blender.org
mtllib environment.mtl
o explosion
v -0.640849 -0.398170 1.000000
v -0.640849 0.398170 1.000000
v -0.640849 -0.398170 -1.000000
v -0.640849 0.398170 -1.000000
v 0.640849 -0.398170 1.000000
v 0.640849 0.398170 1.000000
v 0.640849 -0.398170 -1.000000
v 0.640849 0.398170 -1.000000
vt 0.000000 1.000000
vt 0.000000 0.500000
vt 0.237024 0.500000
vt 0.237025 1.000000
vt 0.237025 0.820425
vt 0.474049 0.500000
vt 0.474049 0.820424
vt 1.000000 0.000000
vt 1.000000 0.500000
vt 0.762976 0.500000
vt 0.762976 0.000000
vt 0.711074 0.500000
vt 0.711074 0.820424
vt 0.381488 0.500000
vt 0.381488 0.000000
vt 0.000000 0.000000
vn -1.000000 0.000000 0.000000
vn 0.000000 0.000000 -1.000000
vn 1.000000 0.000000 0.000000
vn 0.000000 0.000000 1.000000
vn 0.000000 -1.000000 0.000000
vn 0.000000 1.000000 0.000000
usemtl explosion
s off
f 2/1/1 4/2/1 3/3/1 1/4/1
f 4/5/2 8/3/2 7/6/2 3/7/2
f 8/8/3 6/9/3 5/10/3 7/11/3
f 6/7/4 2/6/4 1/12/4 5/13/4
f 1/14/5 3/15/5 7/11/5 5/10/5
f 6/15/6 8/14/6 4/2/6 2/16/6
o spark
v -1.000000 -1.000000 1.000000
v -1.000000 1.000000 1.000000
v -1.000000 -1.000000 -1.000000
v -1.000000 1.000000 -1.000000
v 1.000000 -1.000000 1.000000
v 1.000000 1.000000 1.000000
v 1.000000 -1.000000 -1.000000
v 1.000000 1.000000 -1.000000
vt 0.333333 0.333333
vt 0.333333 0.000000
vt 0.666667 0.000000
vt 0.666667 0.333333
vt 0.000000 0.666667
vt 0.000000 0.333333
vt 0.333333 0.666667
vt 0.000000 0.000000
vt 0.666667 0.666667
vt 1.000000 0.000000
vt 1.000000 0.333333
vt 0.333333 1.000000
vt 0.000000 1.000000
vn -1.000000 0.000000 0.000000
vn 0.000000 0.000000 -1.000000
vn 1.000000 0.000000 0.000000
vn 0.000000 0.000000 1.000000
vn 0.000000 -1.000000 0.000000
vn 0.000000 1.000000 0.000000
usemtl spark
s off
f 10/17/7 12/18/7 11/19/7 9/20/7
f 12/21/8 16/22/8 15/17/8 11/23/8
f 16/22/9 14/24/9 13/18/9 15/17/9
f 14/17/10 10/20/10 9/25/10 13/23/10
f 9/26/11 11/27/11 15/20/11 13/19/11
f 14/21/12 16/23/12 12/28/12 10/29/12
o grid
v -0.707107 0.707107 0.000000
v -1.000000 -0.000000 0.000000
v -0.353553 0.707107 -0.612373
v -0.500000 -0.000000 -0.866026
v 0.353554 0.707107 -0.612372
v 0.500000 -0.000000 -0.866025
v 0.707107 0.707107 0.000000
v 1.000000 -0.000000 0.000000
v 0.353553 0.707107 0.612373
v 0.500000 -0.000000 0.866026
v 0.000000 1.000000 0.000000
v -0.353554 0.707107 0.612372
v -0.707107 -0.707107 0.000000
v -0.353553 -0.707107 -0.612373
v 0.353554 -0.707107 -0.612372
v 0.707107 -0.707107 0.000000
v 0.353553 -0.707107 0.612373
v 0.000000 -1.000000 0.000000
v -0.353554 -0.707107 0.612372
v -0.500000 0.000000 0.866025
vt 0.666667 0.375000
vt 0.463691 0.338388
vt 0.463691 0.161612
vt 0.666667 0.125000
vt 0.407823 0.073223
vt 0.587658 0.000000
vt 0.254325 0.500000
vt 0.074490 0.426777
vt 0.130357 0.338388
vt 0.333333 0.375000
vt 0.130358 0.161612
vt 0.333333 0.125000
vt 0.333333 0.250000
vt 0.000000 0.250000
vt 0.074490 0.073223
vt 0.407823 0.426777
vt 0.797024 0.338388
vt 0.666667 0.250000
vt 0.797024 0.161612
vt 0.741157 0.073223
vt 0.074490 0.926777
vt 0.000000 0.750000
vt 0.130357 0.838388
vt 0.130357 0.661612
vt 0.074490 0.573223
vt 0.741157 0.426777
vt 0.254325 0.000000
vt 0.587658 0.500000
vt 1.000000 0.375000
vt 1.000000 0.125000
vt 0.920991 0.000000
vt 0.254325 1.000000
vt 0.333333 0.875000
vt 0.333333 0.625000
vt 0.920991 0.500000
vn 0.000000 1.000000 0.000000
vn -0.759700 0.650300 0.000000
vn -0.379800 0.650300 -0.657900
vn 0.379800 0.650300 -0.657900
vn 0.759700 0.650300 0.000000
vn 0.379800 0.650300 0.657900
vn -0.379800 0.650300 0.657900
usemtl grid
s 1
f 18/30/13 17/31/14 19/32/15 20/33/13
f 20/33/13 19/32/15 21/34/16 22/35/13
f 22/36/13 21/37/16 23/38/17 24/39/13
f 24/39/13 23/38/17 25/40/18 26/41/13
f 17/31/14 27/42/13 19/32/15
f 19/32/15 27/42/13 21/34/16
f 21/37/16 27/43/13 23/38/17
f 23/38/17 27/43/13 25/40/18
f 25/40/18 27/43/13 28/44/19
f 28/45/19 27/42/13 17/31/14
f 29/46/17 34/47/13 30/48/18
f 30/48/18 34/47/13 31/49/19
f 31/50/19 34/51/13 32/52/14
f 32/52/14 34/51/13 33/53/15
f 33/53/15 34/51/13 35/54/16
f 35/55/16 34/47/13 29/46/17
f 26/41/13 25/40/18 28/44/19 36/56/13
f 36/57/13 28/45/19 17/31/14 18/30/13
f 18/58/13 29/46/17 30/48/18 20/59/13
f 20/59/13 30/48/18 31/49/19 22/60/13
f 22/61/13 31/50/19 32/52/14 24/62/13
f 24/62/13 32/52/14 33/53/15 26/63/13
f 26/63/13 33/53/15 35/54/16 36/36/13
f 36/64/13 35/55/16 29/46/17 18/58/13
